PathFileType	4	(X/Y/Z)	s05c0402.trc
DataRate	CameraRate	NumFrames	NumMarkers	Units	OrigDataRate	OrigDataStartFrame	OrigNumFrames
200	200	6	50	mm	200	1250	2000
Frame#	Time	racr			lacr			c7			jug			rlel			rdr			llel			ldr			s2			lic			ric			lasi			rasi			rpsi			lpsi			rgt			lgt			rth1			rth2			rth3			rth4			rlfc			rmfc			rsh1			rsh2			rsh3			rsh4			rlmal			rmmal			rcal			rtoe			rmt5			lth1			lth2			lth4			lth3			llfc			lmfc			lsh1			lsh2			lsh3			lsh4			llmal			lmmal			lcal			ltoe			lmt5			SBIKE			LBIKE			RBIKE			
		X1	Y1	Z1	X2	Y2	Z2	X3	Y3	Z3	X4	Y4	Z4	X5	Y5	Z5	X6	Y6	Z6	X7	Y7	Z7	X8	Y8	Z8	X9	Y9	Z9	X10	Y10	Z10	X11	Y11	Z11	X12	Y12	Z12	X13	Y13	Z13	X14	Y14	Z14	X15	Y15	Z15	X16	Y16	Z16	X17	Y17	Z17	X18	Y18	Z18	X19	Y19	Z19	X20	Y20	Z20	X21	Y21	Z21	X22	Y22	Z22	X23	Y23	Z23	X24	Y24	Z24	X25	Y25	Z25	X26	Y26	Z26	X27	Y27	Z27	X28	Y28	Z28	X29	Y29	Z29	X30	Y30	Z30	X31	Y31	Z31	X32	Y32	Z32	X33	Y33	Z33	X34	Y34	Z34	X35	Y35	Z35	X36	Y36	Z36	X37	Y37	Z37	X38	Y38	Z38	X39	Y39	Z39	X40	Y40	Z40	X41	Y41	Z41	X42	Y42	Z42	X43	Y43	Z43	X44	Y44	Z44	X45	Y45	Z45	X46	Y46	Z46	X47	Y47	Z47	X48	Y48	Z48	X49	Y49	Z49	X50	Y50	Z50	
1250	6.2500	808.910714	1240.061697	-110.626710	791.589302	1285.593370	-410.640456	792.813904	1355.373369	-258.995995	730.720281	1195.576063	-267.214173	584.073848	1129.510356	62.270438	684.534533	964.633519	-58.529389	567.287320	1170.626720	-594.188809	676.087236	960.108252	-518.646908	201.031653	1256.964761	-306.174892	365.165579	1215.141500	-427.024542	325.445833	1269.223192	-151.770160	386.587254	1153.987034	-378.092584	355.513239	1198.834758	-165.038543	240.908269	1303.923757	-269.215534	257.139216	1289.023160	-351.801820	264.963961	1159.468451	-114.419090	268.418543	1125.727822	-447.135064	356.663396	1083.398824	-98.710591	437.128812	1046.631500	-93.166029	487.095948	973.370484	-91.780038	460.256543	1072.836503	-108.072730	594.238665	866.311240	-113.933813	584.932845	860.225999	-227.329650	503.753624	808.780174	-93.670186	457.291704	733.079978	-100.905479	383.673808	690.102549	-103.736972	480.976296	711.205024	-122.402199	289.848706	581.996072	-111.351194	315.460701	604.015215	-187.479514	211.772181	592.426525	-152.110346	444.108893	410.980273	-165.793280	352.133973	446.239846	-92.786444	306.577165	989.059464	-456.840968	348.082385	915.105020	-447.120375	380.979202	922.579134	-430.812314	346.305789	824.250075	-447.068686	355.569709	678.610353	-418.558851	330.143422	671.509248	-312.750734	260.957826	592.982199	-452.690046	225.906708	513.274865	-443.606710	154.726412	459.911939	-446.421016	250.426799	495.603692	-419.576363	89.790364	360.582194	-444.783483	145.258891	368.945536	-372.995736	24.971991	379.204010	-401.644168	184.911066	131.235399	-397.796621	100.396564	200.092597	-463.470786	-263.983118	894.695484	-284.575873	-53.467041	79.775698	-474.735870	-53.441645	79.443197	-77.175904	
1251	6.2550	808.818351	1238.002537	-110.437385	791.009918	1286.477207	-409.649054	792.777976	1355.206035	-257.752356	729.939814	1195.211634	-267.032332	584.216337	1128.741938	63.444861	684.472194	964.910333	-58.840622	567.557831	1170.855361	-593.093469	676.019081	959.938310	-517.812552	201.395614	1258.575572	-306.578050	365.498233	1217.416663	-427.257861	325.419117	1269.234774	-151.565966	386.729548	1155.612052	-379.029813	355.156765	1199.163574	-165.139638	240.586732	1305.166754	-268.759606	257.726974	1290.904091	-351.981845	263.925479	1159.398371	-115.475957	269.685202	1127.582435	-448.357375	354.018817	1081.606731	-98.699105	433.743016	1043.360119	-92.629753	482.346481	969.099379	-91.436774	457.434109	1069.044913	-106.916144	588.384845	860.832909	-113.097781	579.665738	855.011308	-226.036606	497.971015	801.614481	-92.881668	453.037855	725.130946	-100.362540	380.288253	680.738587	-103.307561	477.156223	703.686183	-121.779817	289.312929	570.732593	-111.140179	313.830995	594.073221	-187.536362	210.066139	578.310432	-151.939599	451.194570	408.031304	-165.152380	357.238173	437.968972	-92.791367	310.475148	990.979803	-457.164401	353.457385	918.005481	-446.361883	385.775387	926.235252	-429.361151	353.665546	827.309273	-445.670973	364.054533	681.283483	-417.783711	338.270933	674.226549	-312.221508	267.731695	597.152803	-452.190577	230.702667	518.213928	-443.100182	158.227427	466.732824	-446.465622	254.565943	500.072001	-418.805056	90.146979	368.559209	-445.113899	142.525861	375.033470	-373.138915	26.032640	389.553605	-401.576851	176.423113	135.501166	-397.725357	94.654634	207.702071	-463.186647	-263.813951	894.846197	-284.085626	-53.448250	79.907726	-474.688672	-53.407786	79.464751	-77.143477	
1252	6.2600	808.762277	1236.215946	-110.200349	790.477842	1287.570575	-408.809492	792.870272	1355.174822	-256.605436	729.394388	1195.014655	-267.009405	584.885517	1127.267030	62.472557	684.295317	965.118231	-58.947201	567.873784	1171.062599	-592.040510	675.914028	959.756214	-516.827295	201.843799	1259.994303	-307.113390	365.663251	1219.431059	-427.375842	325.445528	1268.780064	-151.507220	386.799071	1157.033331	-379.801065	355.794736	1198.460922	-166.069657	240.546143	1306.459666	-267.776592	258.434093	1292.372804	-351.740390	262.562630	1159.125569	-115.982353	270.988757	1129.234626	-449.709070	351.208758	1079.192011	-98.673558	430.042963	1039.308892	-91.971297	476.873942	964.210195	-90.768890	454.464060	1064.715516	-105.610079	581.950066	854.461195	-112.262589	573.973807	848.819232	-224.814267	491.550037	793.554684	-91.971012	448.637937	715.994267	-99.738516	376.748993	670.114055	-102.830109	473.073154	695.202873	-121.283851	288.382701	558.810050	-111.408781	312.228311	583.233175	-187.777458	209.149827	562.411692	-152.530884	457.522854	404.328928	-163.967965	361.664332	429.572901	-92.156920	314.472203	992.784489	-457.408967	358.893800	920.909250	-445.538838	390.758927	929.718089	-427.553354	361.036262	830.119931	-444.537706	372.444822	684.046870	-417.156297	346.281817	677.098922	-311.586161	274.839423	601.321262	-451.794423	235.749677	523.354761	-442.726635	162.034810	473.605334	-446.471937	258.908369	504.645559	-418.061103	91.051182	376.709854	-445.474857	140.175174	381.429841	-373.218833	27.590145	400.025350	-401.659657	168.142173	140.295286	-397.578134	89.337253	215.612414	-462.945533	-263.715608	894.834114	-284.056116	-53.429490	80.075443	-474.719242	-53.402946	79.470686	-77.105051	
1253	6.2650	808.820099	1234.688022	-109.943675	790.049423	1288.921823	-408.189368	793.018251	1355.255386	-255.696282	729.350005	1194.906830	-267.286130	584.672043	1127.812308	64.466347	684.035648	965.330496	-58.914251	568.088011	1171.263703	-590.921550	675.737596	959.588802	-515.848975	202.085993	1261.030468	-307.374803	365.847335	1221.277839	-427.553577	325.310150	1267.888811	-151.606411	387.022004	1158.432295	-380.668195	356.185430	1197.428969	-166.742007	240.760345	1306.821955	-267.973448	258.911996	1293.590530	-351.587785	260.861488	1158.609156	-116.397468	272.361011	1130.591036	-451.080729	348.488209	1076.221616	-98.463116	426.548399	1034.407026	-91.678773	471.551772	958.394722	-90.821294	451.677849	1059.849598	-104.491585	575.003808	847.316290	-111.432120	567.951871	841.969891	-223.785726	485.746830	784.264975	-91.069488	443.918483	705.877357	-99.149187	373.126465	658.411149	-102.377413	468.898432	685.968223	-120.880609	286.904288	546.106156	-111.959259	310.751470	571.546098	-188.325302	208.285335	546.322918	-154.434911	463.141073	399.855485	-162.249122	365.291264	420.634477	-91.551439	318.512659	994.609843	-457.640685	364.313872	923.721950	-444.906876	395.730445	933.241414	-426.692135	368.277032	832.932491	-443.447571	380.656820	686.795960	-416.593728	354.270650	679.991987	-310.945881	281.996230	605.381493	-451.233098	240.944270	528.355614	-442.355244	166.067765	480.551193	-446.704339	263.458790	509.301727	-417.495700	92.257824	384.899872	-445.906267	138.228908	388.123665	-373.230499	29.672614	410.529048	-401.932950	160.421393	145.756980	-397.359909	84.482416	223.900912	-462.746331	-263.693056	894.895422	-283.814269	-53.423463	80.172714	-474.711577	-53.400199	79.445513	-77.108396	
1254	6.2700	809.067061	1233.468819	-109.686669	789.747899	1290.555273	-407.708084	793.239242	1355.447757	-254.934653	729.585305	1194.888986	-267.708255	584.713934	1127.707651	65.401473	683.718989	965.505813	-58.721664	568.308886	1171.644621	-589.743615	675.521708	959.413810	-514.900843	202.470122	1261.560744	-307.364809	366.028205	1222.870492	-427.592595	325.168233	1266.954678	-151.395391	387.163278	1159.360126	-381.354620	355.903123	1196.497837	-166.662137	241.387761	1307.295464	-267.719337	259.651208	1294.253038	-351.203898	259.381109	1157.461518	-117.008067	273.769927	1131.780599	-452.431045	345.524181	1073.028674	-98.390593	422.511195	1029.170257	-91.039487	465.807626	952.326753	-90.653140	447.370431	1053.832269	-102.731223	566.467550	839.837324	-109.248706	561.181007	834.311270	-222.968515	479.131195	774.387607	-90.442749	439.100596	695.090082	-98.795766	369.463133	645.975246	-102.200601	464.214884	675.840119	-120.723489	285.460225	533.106409	-112.799432	309.300146	559.331126	-189.220433	207.114044	530.369084	-156.417830	468.151337	394.579122	-160.205287	368.268955	411.121047	-91.028482	322.534591	996.321187	-458.116576	369.559458	926.330186	-444.421229	400.779637	936.704887	-426.469492	375.473256	835.899331	-442.955288	388.727542	689.677879	-416.098157	362.154724	682.949300	-310.102038	288.737764	609.274855	-450.363661	246.206553	533.573977	-442.122239	170.204541	487.592511	-446.975939	268.087718	513.901924	-417.047788	93.821584	393.169128	-446.451378	136.709231	395.104140	-373.168932	32.065520	421.588928	-402.771040	153.061524	151.581139	-397.123951	80.252859	232.394430	-462.581089	-263.501403	894.955760	-283.415462	-53.413958	80.211340	-474.669551	-53.378972	79.436683	-77.088398	
1255	6.2750	809.486131	1232.415314	-109.357337	789.572143	1292.434234	-407.381035	793.585104	1355.747555	-254.201820	730.183828	1195.049531	-268.205090	584.791158	1127.771703	66.161379	683.356680	965.664448	-58.423057	568.531633	1172.054305	-588.578778	675.273785	959.233608	-514.086599	202.589348	1261.909570	-307.496019	366.194549	1224.113784	-427.562780	325.073432	1265.700658	-150.935118	387.262555	1160.285718	-381.995541	358.293976	1194.275035	-169.450535	241.819894	1307.292208	-267.452143	260.098258	1294.836392	-350.863292	258.156486	1155.888503	-117.459147	275.186179	1132.725044	-453.732419	342.526096	1069.225569	-98.302932	418.417159	1023.732889	-90.364084	459.803116	945.831327	-90.448128	444.041118	1048.190398	-101.022205	558.899207	831.695897	-108.975606	554.293004	826.483946	-221.970613	472.382665	763.929395	-89.808922	433.999236	683.727835	-98.864504	365.644319	632.891249	-102.387386	459.605114	665.331840	-120.912334	283.474774	520.632036	-113.303537	307.813663	546.393931	-190.559895	206.238440	514.231226	-158.493899	472.200711	388.437922	-159.056053	371.189221	401.381037	-90.770962	326.414350	997.715646	-458.533006	374.691017	928.846134	-444.434488	405.938328	940.026143	-427.102805	382.162179	838.554303	-442.197226	396.564617	692.297133	-415.678408	369.522935	685.762947	-309.526141	295.795283	613.296249	-449.828199	251.421872	538.742679	-441.936384	174.410563	494.412669	-447.139807	272.766965	518.425788	-416.754560	95.755282	401.395032	-446.973418	135.638221	402.360341	-373.029143	34.796539	431.733389	-403.179950	146.304908	157.952198	-396.692874	76.528300	241.162544	-462.469777	-263.536172	895.022887	-283.274633	-53.428227	80.231618	-474.662882	-53.382698	79.421890	-77.054182	
